#!OML:ASF H:\Terrain\Patient Classification 1\Walking\steve\steve.ASF
:FULLY-SPECIFIED
:DEGREES
263
root 9.54928 16.2194 21.966 7.8032 -10.0659 -5.73473
lowerback -2.27297 5.08875 4.46905
upperback -3.5834 6.77966 1.35132
thorax -2.0752 3.30162 -1.04225
lowerneck -11.2022 -0.595723 -3.44498
upperneck 12.5209 -0.21138 -0.00750025
head 5.62863 -0.266721 0.542801
rclavicle -6.34403e-015 -2.68856e-014
rhumerus -9.05616 4.48172 -83.3601
rradius 50.5495
rwrist -19.8675
rhand -28.0881 -30.7452
rfingers 7.12502
rthumb -1.47101 -60.7199
lclavicle -6.34403e-015 -2.68856e-014
lhumerus -72.1774 20.3202 45.9101
lradius 7.9633
lwrist -25.6397
lhand -13.5033 -8.25488
lfingers 7.12502
lthumb 12.608 21.3446
rfemur 14.786 3.69304 25.1754
rtibia 16.615
rfoot 1.01397 19.2717
rtoes 4.92061
lfemur -39.8195 3.23871 -12.905
ltibia 22.6962
lfoot -10.0992 8.28978
ltoes -11.1749
264
root 9.56573 16.2115 22.2339 8.11745 -9.87516 -5.81299
lowerback -2.74008 5.14235 4.51218
upperback -3.76107 6.82542 1.18735
thorax -1.97184 3.32185 -1.19509
lowerneck -11.1673 -0.712118 -3.64455
upperneck 12.5944 -0.419719 0.573135
head 5.65022 -0.335608 0.741374
rclavicle 5.15607e-014 3.00786e-014
rhumerus -10.0511 4.41633 -83.3584
rradius 51.5893
rwrist -21.0289
rhand -30.7488 -27.732
rfingers 7.12502
rthumb -4.04056 -57.6734
lclavicle 5.15607e-014 3.00786e-014
lhumerus -71.8628 20.4313 45.3499
lradius 7.17203
lwrist -25.9108
lhand -14.3299 -7.72767
lfingers 7.12502
lthumb 11.811 21.9193
rfemur 14.1522 4.06566 25.3925
rtibia 18.6032
rfoot 0.794707 18.3475
rtoes -1.78869
lfemur -40.5828 2.9986 -12.8187
ltibia 24.2623
lfoot -8.43529 7.45073
ltoes -8.82732
265
root 9.57761 16.1941 22.4943 8.41228 -9.82888 -5.48312
lowerback -3.10376 5.22353 3.99714
upperback -4.01597 6.92498 0.951028
thorax -2.05687 3.37729 -1.13283
lowerneck -10.9885 -0.800268 -3.95314
upperneck 12.5646 -0.593708 1.26063
head 5.6164 -0.384386 0.994392
rclavicle 4.26626e-014 -1.25234e-014
rhumerus -11.2259 4.06623 -83.4522
rradius 52.4646
rwrist -21.8326
rhand -30.9683 -27.1458
rfingers 7.12502
rthumb -4.25257 -57.0831
lclavicle 4.26626e-014 -1.25234e-014
lhumerus -71.5326 20.5707 44.8634
lradius 6.47976
lwrist -26.3507
lhand -14.7686 -6.92797
lfingers 7.12502
lthumb 11.3879 22.7428
rfemur 13.4149 5.42576 25.3531
rtibia 20.8651
rfoot 2.56391 16.5971
rtoes 0.039899
lfemur -41.3316 2.93102 -13.2421
ltibia 25.8604
lfoot -6.96902 6.66499
ltoes -5.79423
266
root 9.5811 16.1902 22.7424 8.49453 -9.75214 -4.78619
lowerback -3.32286 5.23828 2.94157
upperback -4.15425 6.95142 0.711896
thorax -2.16693 3.41208 -0.790662
lowerneck -11.0129 -0.958757 -4.23156
upperneck 12.7048 -0.834465 1.77187
head 5.6738 -0.478457 1.18184
rclavicle -9.71933e-014 2.38542e-015
rhumerus -12.3371 3.41911 -83.4968
rradius 53.1961
rwrist -21.7777
rhand -28.7844 -28.2619
rfingers 7.12502
rthumb -2.14347 -58.2309
lclavicle -9.71933e-014 2.38542e-015
lhumerus -71.2492 20.7831 44.447
lradius 6.12465
lwrist -26.6852
lhand -14.7203 -5.94135
lfingers 7.12502
lthumb 11.4345 23.7268
rfemur 12.8226 6.46727 24.8977
rtibia 22.9579
rfoot 5.02918 14.2288
rtoes 5.47132
lfemur -41.9148 2.98071 -14.1745
ltibia 27.7368
lfoot -5.40745 6.69118
ltoes -5.17371
267
root 9.58554 16.205 23.0053 8.39984 -9.56399 -4.05871
lowerback -4.01479 5.1882 1.99801
upperback -3.87476 6.86934 0.458991
thorax -1.57163 3.40016 -0.452465
lowerneck -11.4985 -1.16995 -4.32682
upperneck 12.8124 -1.14049 2.16123
head 5.80188 -0.601528 1.29432
rclavicle -2.5314e-015 4.27387e-015
rhumerus -13.0352 2.91011 -83.5045
rradius 53.8758
rwrist -21.6723
rhand -25.5878 -30.7313
rfingers 7.12502
rthumb 0.943891 -60.709
lclavicle -2.5314e-015 4.27387e-015
lhumerus -70.6957 21.3767 44.071
lradius 6.04001
lwrist -27.0266
lhand -15.0659 -4.7365
lfingers 7.12502
lthumb 11.1012 24.9499
rfemur 12.1559 6.59424 24.171
rtibia 25.4344
rfoot 7.34317 12.1189
rtoes 8.30176
lfemur -42.0788 3.28381 -15.468
ltibia 29.6518
lfoot -4.21082 6.51179
ltoes -4.71156
268
root 9.59115 16.2361 23.2705 8.37836 -9.54628 -3.42639
lowerback -3.75734 5.18903 1.15252
upperback -4.34487 6.89847 0.100369
thorax -2.25358 3.42314 -0.411693
lowerneck -11.1249 -1.24404 -4.30351
upperneck 12.9948 -1.35021 2.7445
head 5.80554 -0.661709 1.45926
rclavicle -1.66731e-014 3.57812e-015
rhumerus -15.0542 2.33402 -83.773
rradius 54.7147
rwrist -21.3838
rhand -21.5571 -33.7807
rfingers 7.12502
rthumb 4.83644 -63.7055
lclavicle -1.66731e-014 3.57812e-015
lhumerus -70.8645 21.1045 43.2406
lradius 6.25526
lwrist -27.2385
lhand -15.6578 -3.81823
lfingers 7.12502
lthumb 10.5303 25.898
rfemur 11.1373 6.64075 23.3818
rtibia 28.1928
rfoot 9.94614 9.59813
rtoes 9.94419
lfemur -42.2066 3.81427 -16.7448
ltibia 31.483
lfoot -3.9621 5.59515
ltoes -2.68331
269
root 9.59038 16.2503 23.5013 8.64253 -9.80953 -3.03535
lowerback -3.93998 5.26582 0.42006
upperback -4.45069 7.01009 -0.148131
thorax -2.31578 3.49495 -0.253
lowerneck -11.1076 -1.28143 -4.44948
upperneck 12.822 -1.45203 3.27036
head 5.75622 -0.678502 1.64066
rclavicle -3.42655e-014 -1.41137e-014
rhumerus -16.2911 1.98236 -84.0669
rradius 55.4643
rwrist -21.9571
rhand -19.1422 -36.0008
rfingers 7.12502
rthumb 7.16787 -65.8594
lclavicle -3.42655e-014 -1.41137e-014
lhumerus -70.4255 21.5965 42.6773
lradius 6.43432
lwrist -27.2457
lhand -15.985 -3.1929
lfingers 7.12502
lthumb 10.2146 26.5391
rfemur 9.52686 7.25551 22.9271
rtibia 31.1564
rfoot 12.6457 6.23139
rtoes 11.1509
lfemur -42.6033 4.54483 -17.6546
ltibia 32.9435
lfoot -3.83776 4.31736
ltoes 0.0578785
